<svg xmlns="http://www.w3.org/2000/svg" xmlns:xlink="http://www.w3.org/1999/xlink" width="500" zoomAndPan="magnify" viewBox="0 0 375 374.999991" height="500" preserveAspectRatio="xMidYMid meet" version="1.0"><defs><g/><clipPath id="461beb9d0d"><path d="M 137 89.5 L 193 89.5 L 193 174 L 137 174 Z M 137 89.5 " clip-rule="nonzero"/></clipPath><clipPath id="bba990b48d"><path d="M 112.5 92 L 250 92 L 250 224.5 L 112.5 224.5 Z M 112.5 92 " clip-rule="nonzero"/></clipPath></defs><g clip-path="url(#461beb9d0d)"><path fill="#ad7f66" d="M 155.503906 135.019531 C 155.175781 135.085938 154.832031 135.160156 154.496094 135.234375 C 154.160156 135.3125 153.828125 135.402344 153.492188 135.488281 C 152.15625 135.859375 150.828125 136.367188 149.570312 137.023438 C 148.3125 137.683594 147.121094 138.496094 146.058594 139.4375 C 144.996094 140.386719 144.078125 141.457031 143.277344 142.585938 C 143.078125 142.875 142.875 143.152344 142.695312 143.453125 C 142.507812 143.75 142.320312 144.042969 142.164062 144.355469 L 141.914062 144.8125 C 141.835938 144.964844 141.761719 145.121094 141.691406 145.28125 L 141.46875 145.75 L 141.265625 146.222656 C 140.734375 147.492188 140.335938 148.796875 140.046875 150.105469 C 139.460938 152.726562 139.269531 155.339844 139.148438 157.902344 C 139.035156 160.464844 138.980469 163.003906 138.839844 165.535156 C 138.691406 168.0625 138.445312 170.585938 137.957031 173.097656 C 138.90625 170.722656 139.539062 168.203125 140.03125 165.6875 C 140.523438 163.164062 140.871094 160.617188 141.253906 158.109375 C 141.445312 156.859375 141.640625 155.621094 141.894531 154.402344 C 142.140625 153.1875 142.417969 151.984375 142.785156 150.835938 C 143.152344 149.683594 143.582031 148.570312 144.113281 147.527344 L 144.308594 147.136719 L 144.523438 146.757812 C 144.597656 146.636719 144.664062 146.503906 144.742188 146.382812 L 144.976562 146.015625 C 145.054688 145.894531 145.128906 145.765625 145.210938 145.652344 L 145.460938 145.304688 C 145.617188 145.066406 145.8125 144.839844 145.984375 144.609375 C 146.714844 143.699219 147.515625 142.882812 148.402344 142.179688 C 149.289062 141.480469 150.242188 140.894531 151.261719 140.421875 C 152.285156 139.941406 153.367188 139.585938 154.492188 139.308594 L 155.34375 139.128906 C 155.632812 139.078125 155.914062 139.027344 156.214844 138.976562 C 156.816406 138.878906 157.433594 138.789062 158.058594 138.703125 C 159.308594 138.535156 160.601562 138.359375 161.921875 138.117188 C 162.582031 138.003906 163.246094 137.851562 163.917969 137.6875 C 164.589844 137.507812 165.269531 137.320312 165.941406 137.074219 C 166.617188 136.839844 167.285156 136.535156 167.945312 136.210938 L 168.429688 135.945312 C 168.59375 135.855469 168.75 135.769531 168.914062 135.660156 C 169.242188 135.464844 169.550781 135.25 169.855469 135.03125 C 171.078125 134.132812 172.121094 133.03125 172.984375 131.824219 C 173.84375 130.609375 174.515625 129.277344 174.992188 127.878906 C 175.460938 126.476562 175.734375 125.003906 175.777344 123.515625 C 175.816406 122.023438 175.636719 120.511719 175.1875 119.066406 C 175.136719 118.878906 175.074219 118.722656 175.015625 118.558594 C 174.960938 118.394531 174.902344 118.226562 174.839844 118.066406 L 174.660156 117.582031 L 174.46875 117.101562 C 174.210938 116.46875 173.925781 115.847656 173.632812 115.25 C 173.339844 114.652344 173.039062 114.066406 172.742188 113.496094 L 171.855469 111.816406 C 171.566406 111.269531 171.300781 110.730469 171.046875 110.191406 C 170.792969 109.65625 170.570312 109.125 170.382812 108.59375 C 170.191406 108.0625 170.03125 107.535156 169.914062 107.003906 C 169.796875 106.472656 169.726562 105.941406 169.695312 105.410156 C 169.652344 104.875 169.675781 104.339844 169.734375 103.796875 C 169.785156 103.253906 169.898438 102.714844 170.03125 102.164062 C 171.160156 97.785156 174.542969 93.839844 178.949219 92.089844 C 179.222656 91.976562 179.503906 91.882812 179.785156 91.78125 C 180.070312 91.695312 180.351562 91.605469 180.644531 91.53125 C 181.21875 91.382812 181.808594 91.269531 182.40625 91.203125 C 182.550781 91.179688 182.703125 91.167969 182.851562 91.160156 C 183 91.148438 183.152344 91.128906 183.304688 91.125 L 183.761719 91.109375 L 184.441406 91.109375 L 184.667969 91.117188 L 185.125 91.140625 C 185.429688 91.167969 185.734375 91.1875 186.039062 91.230469 C 188.472656 91.542969 190.867188 92.46875 192.972656 93.917969 C 191.175781 92.09375 188.839844 90.734375 186.277344 90.046875 C 185.960938 89.949219 185.632812 89.886719 185.308594 89.816406 C 185.144531 89.78125 184.980469 89.753906 184.816406 89.726562 L 184.566406 89.683594 L 184.320312 89.652344 C 184.15625 89.628906 183.984375 89.605469 183.824219 89.589844 L 183.320312 89.550781 C 183.152344 89.53125 182.988281 89.527344 182.816406 89.519531 C 182.648438 89.515625 182.480469 89.503906 182.308594 89.511719 C 181.632812 89.5 180.953125 89.5625 180.28125 89.652344 C 179.945312 89.695312 179.613281 89.757812 179.277344 89.828125 C 178.945312 89.898438 178.613281 89.972656 178.285156 90.070312 C 176.96875 90.4375 175.707031 90.988281 174.507812 91.671875 C 173.324219 92.367188 172.214844 93.207031 171.21875 94.167969 C 170.714844 94.648438 170.246094 95.15625 169.804688 95.695312 C 169.367188 96.234375 168.953125 96.796875 168.582031 97.390625 C 168.210938 97.984375 167.859375 98.59375 167.558594 99.230469 C 167.253906 99.867188 166.996094 100.523438 166.773438 101.199219 C 166.5625 101.878906 166.367188 102.578125 166.257812 103.300781 C 166.136719 104.015625 166.0625 104.757812 166.070312 105.496094 C 166.070312 106.234375 166.136719 106.976562 166.257812 107.699219 C 166.378906 108.421875 166.554688 109.121094 166.765625 109.796875 C 166.972656 110.476562 167.222656 111.128906 167.480469 111.757812 C 167.742188 112.382812 168.023438 112.992188 168.300781 113.585938 C 168.859375 114.765625 169.421875 115.886719 169.917969 116.996094 C 170.167969 117.546875 170.398438 118.09375 170.609375 118.644531 L 170.761719 119.054688 L 170.902344 119.46875 C 170.953125 119.601562 170.992188 119.742188 171.035156 119.878906 C 171.078125 120.015625 171.128906 120.160156 171.15625 120.28125 C 171.296875 120.777344 171.398438 121.289062 171.453125 121.808594 C 171.511719 122.328125 171.527344 122.855469 171.503906 123.382812 C 171.414062 125.496094 170.6875 127.617188 169.457031 129.34375 C 168.847656 130.207031 168.113281 130.980469 167.285156 131.597656 C 167.074219 131.75 166.867188 131.902344 166.644531 132.039062 C 166.539062 132.109375 166.417969 132.171875 166.308594 132.242188 L 165.957031 132.4375 C 165.476562 132.679688 164.984375 132.914062 164.460938 133.105469 C 163.941406 133.308594 163.394531 133.472656 162.839844 133.628906 C 162.277344 133.777344 161.707031 133.917969 161.113281 134.035156 C 159.933594 134.285156 158.703125 134.476562 157.433594 134.691406 C 156.796875 134.78125 156.152344 134.894531 155.503906 135.019531 Z M 155.503906 135.019531 " fill-opacity="1" fill-rule="nonzero"/></g><g clip-path="url(#bba990b48d)"><path fill="#ad7f66" d="M 241.953125 124.625 C 241.082031 123.015625 240.152344 121.449219 239.15625 119.917969 L 238.394531 118.785156 C 238.273438 118.59375 238.136719 118.410156 238.007812 118.226562 L 237.609375 117.667969 C 237.351562 117.292969 237.074219 116.933594 236.804688 116.566406 L 236.390625 116.019531 C 236.257812 115.835938 236.109375 115.664062 235.972656 115.480469 L 235.550781 114.945312 C 235.410156 114.765625 235.269531 114.589844 235.121094 114.414062 L 234.246094 113.371094 L 233.347656 112.347656 C 233.203125 112.179688 233.042969 112.011719 232.890625 111.847656 L 232.429688 111.351562 C 231.1875 110.027344 229.894531 108.757812 228.546875 107.554688 C 233.394531 112.914062 237.492188 118.886719 240.546875 125.34375 C 243.617188 131.789062 245.6875 138.675781 246.644531 145.710938 C 246.890625 147.464844 247.050781 149.238281 247.164062 151.003906 C 247.222656 151.890625 247.242188 152.777344 247.273438 153.664062 C 247.28125 154.550781 247.296875 155.433594 247.273438 156.320312 C 247.246094 158.09375 247.152344 159.867188 246.976562 161.628906 C 246.800781 163.390625 246.570312 165.148438 246.253906 166.894531 C 245.011719 173.871094 242.613281 180.632812 239.21875 186.84375 C 239.128906 187.007812 239.039062 187.164062 238.949219 187.328125 C 239.152344 185.578125 239.316406 183.824219 239.441406 182.0625 L 239.523438 180.679688 L 239.5625 179.988281 C 239.582031 179.757812 239.582031 179.527344 239.59375 179.296875 C 239.621094 178.371094 239.65625 177.449219 239.671875 176.523438 C 239.675781 175.597656 239.664062 174.671875 239.664062 173.753906 C 239.644531 172.828125 239.609375 171.902344 239.574219 170.976562 C 239.5625 170.511719 239.523438 170.050781 239.496094 169.585938 L 239.40625 168.199219 C 239.390625 167.964844 239.378906 167.734375 239.355469 167.503906 L 239.289062 166.816406 L 239.148438 165.433594 L 239.074219 164.742188 L 238.984375 164.054688 L 238.796875 162.675781 L 238.699219 161.988281 C 238.671875 161.757812 238.628906 161.53125 238.585938 161.300781 L 238.355469 159.929688 C 237.691406 156.277344 236.777344 152.667969 235.574219 149.152344 C 235.5 148.933594 235.433594 148.710938 235.347656 148.492188 L 235.105469 147.835938 L 234.613281 146.535156 C 234.457031 146.097656 234.269531 145.667969 234.089844 145.242188 L 233.550781 143.960938 C 233.46875 143.746094 233.367188 143.535156 233.269531 143.320312 L 232.976562 142.6875 L 232.390625 141.425781 C 231.972656 140.59375 231.546875 139.769531 231.113281 138.953125 C 229.332031 135.699219 227.285156 132.597656 224.984375 129.699219 C 222.691406 126.800781 220.152344 124.113281 217.429688 121.632812 C 214.703125 119.167969 211.804688 116.902344 208.75 114.882812 L 208.664062 114.996094 C 211.515625 117.28125 214.242188 119.703125 216.777344 122.3125 C 219.316406 124.910156 221.652344 127.6875 223.769531 130.613281 C 225.875 133.550781 227.765625 136.632812 229.375 139.855469 C 230.988281 143.074219 232.339844 146.421875 233.417969 149.847656 C 234.507812 153.273438 235.335938 156.777344 235.921875 160.328125 L 236.136719 161.660156 C 236.171875 161.882812 236.21875 162.105469 236.246094 162.328125 L 236.328125 163 L 236.5 164.335938 L 236.582031 165.007812 L 236.644531 165.679688 L 236.777344 167.023438 L 236.839844 167.695312 C 236.859375 167.921875 236.867188 168.148438 236.882812 168.367188 L 236.972656 169.714844 C 237 170.167969 237.042969 170.613281 237.050781 171.066406 C 237.082031 171.96875 237.121094 172.867188 237.144531 173.769531 C 237.148438 174.671875 237.148438 175.574219 237.160156 176.480469 C 237.152344 177.382812 237.125 178.285156 237.113281 179.1875 C 237.109375 179.414062 237.109375 179.640625 237.097656 179.867188 L 237.0625 180.542969 L 237 181.898438 C 236.839844 185.222656 236.53125 188.546875 236.15625 191.867188 C 233.308594 196.109375 229.992188 200.035156 226.25 203.511719 C 223.667969 205.925781 220.875 208.117188 217.945312 210.09375 C 216.476562 211.074219 214.964844 211.996094 213.421875 212.859375 C 212.847656 213.179688 212.273438 213.492188 211.691406 213.796875 C 211.058594 212.402344 210.527344 210.96875 210.117188 209.488281 C 209.984375 209.003906 209.851562 208.53125 209.742188 208.039062 L 209.574219 207.308594 L 209.433594 206.578125 C 209.324219 206.085938 209.261719 205.589844 209.179688 205.097656 C 209.132812 204.847656 209.109375 204.601562 209.078125 204.351562 L 208.980469 203.609375 C 208.5625 199.617188 208.683594 195.550781 209.160156 191.523438 C 209.640625 187.492188 210.453125 183.484375 211.480469 179.519531 C 211.605469 179.023438 211.746094 178.535156 211.875 178.035156 L 212.078125 177.296875 L 212.292969 176.558594 C 212.363281 176.335938 212.425781 176.113281 212.488281 175.890625 C 212.699219 176.648438 212.972656 177.386719 213.300781 178.097656 C 213.695312 178.960938 214.175781 179.78125 214.726562 180.53125 C 215.28125 181.28125 215.90625 181.976562 216.578125 182.601562 C 217.25 183.230469 217.972656 183.789062 218.734375 184.285156 C 218.925781 184.410156 219.117188 184.527344 219.3125 184.648438 C 219.507812 184.757812 219.699219 184.871094 219.902344 184.980469 C 220.105469 185.085938 220.304688 185.1875 220.507812 185.285156 C 220.714844 185.378906 220.917969 185.472656 221.132812 185.554688 C 221.003906 185.371094 220.863281 185.1875 220.726562 185.015625 L 220.523438 184.75 L 220.316406 184.488281 L 219.496094 183.449219 C 218.960938 182.761719 218.4375 182.078125 217.945312 181.394531 C 217.453125 180.707031 216.984375 180.019531 216.5625 179.3125 C 216.136719 178.605469 215.75 177.890625 215.433594 177.152344 C 214.796875 175.671875 214.457031 174.089844 214.429688 172.488281 C 214.398438 170.886719 214.664062 169.269531 215.144531 167.703125 L 212.679688 166.886719 C 211.945312 168.839844 211.246094 170.816406 210.59375 172.804688 C 209.945312 174.792969 209.347656 176.800781 208.804688 178.828125 C 208.675781 179.335938 208.535156 179.84375 208.410156 180.351562 L 208.039062 181.882812 L 207.695312 183.421875 C 207.582031 183.9375 207.484375 184.453125 207.378906 184.96875 C 206.964844 187.035156 206.644531 189.117188 206.40625 191.21875 C 206.175781 193.316406 206.035156 195.433594 206.027344 197.554688 C 206.027344 197.820312 206.023438 198.085938 206.027344 198.351562 L 206.046875 199.148438 C 206.050781 199.679688 206.085938 200.210938 206.113281 200.746094 L 206.136719 201.144531 L 206.171875 201.546875 L 206.238281 202.34375 C 206.253906 202.609375 206.292969 202.875 206.328125 203.140625 L 206.425781 203.933594 L 206.542969 204.726562 C 206.585938 204.992188 206.617188 205.253906 206.671875 205.515625 C 206.773438 206.039062 206.859375 206.570312 206.984375 207.089844 L 207.15625 207.875 L 207.367188 208.652344 C 207.496094 209.171875 207.664062 209.6875 207.824219 210.199219 C 207.898438 210.460938 208 210.707031 208.082031 210.960938 C 208.175781 211.214844 208.257812 211.46875 208.355469 211.71875 C 208.558594 212.214844 208.738281 212.722656 208.96875 213.210938 C 209.082031 213.453125 209.191406 213.699219 209.304688 213.941406 L 209.664062 214.664062 L 209.726562 214.785156 C 209.382812 214.949219 209.039062 215.113281 208.691406 215.265625 C 207.085938 215.996094 205.453125 216.667969 203.792969 217.277344 C 202.132812 217.882812 200.445312 218.414062 198.746094 218.882812 C 198.316406 218.996094 197.894531 219.113281 197.464844 219.222656 L 196.179688 219.53125 C 195.316406 219.722656 194.457031 219.914062 193.585938 220.074219 C 191.855469 220.402344 190.105469 220.664062 188.347656 220.847656 C 186.59375 221.027344 184.828125 221.152344 183.066406 221.203125 C 181.300781 221.246094 179.53125 221.226562 177.765625 221.140625 C 176.003906 221.042969 174.242188 220.878906 172.492188 220.65625 L 171.183594 220.46875 L 169.878906 220.253906 L 169.550781 220.199219 L 169.226562 220.136719 L 168.574219 220.011719 L 167.925781 219.886719 L 167.277344 219.746094 C 166.414062 219.566406 165.554688 219.351562 164.699219 219.140625 L 163.421875 218.796875 C 163.207031 218.742188 163 218.679688 162.785156 218.617188 L 162.152344 218.429688 C 161.164062 218.132812 160.1875 217.808594 159.210938 217.464844 L 159.574219 216.890625 C 159.71875 216.640625 159.855469 216.386719 159.996094 216.140625 C 160.289062 215.640625 160.53125 215.121094 160.792969 214.609375 C 160.859375 214.480469 160.914062 214.347656 160.972656 214.21875 L 161.324219 213.429688 L 161.40625 213.230469 L 161.484375 213.035156 C 162.351562 210.910156 162.992188 208.703125 163.417969 206.46875 C 163.835938 204.234375 164.058594 201.96875 164.128906 199.707031 C 164.195312 197.449219 164.109375 195.191406 163.914062 192.949219 C 163.714844 190.710938 163.398438 188.484375 163 186.285156 C 162.800781 185.175781 162.574219 184.082031 162.339844 182.992188 L 161.964844 181.355469 L 161.558594 179.730469 C 161.007812 177.566406 160.386719 175.417969 159.71875 173.289062 C 159.199219 171.65625 158.652344 170.039062 158.082031 168.421875 C 157.945312 167.957031 157.78125 167.503906 157.589844 167.058594 C 157.578125 167.023438 157.570312 166.988281 157.558594 166.957031 L 155.554688 167.617188 C 155.671875 168.445312 155.789062 169.257812 155.859375 170.070312 C 155.933594 170.878906 155.953125 171.679688 155.925781 172.472656 C 155.863281 174.058594 155.570312 175.613281 155.007812 177.128906 C 154.445312 178.640625 153.613281 180.089844 152.628906 181.480469 C 152.136719 182.175781 151.609375 182.855469 151.054688 183.535156 C 150.5 184.210938 149.921875 184.871094 149.332031 185.550781 C 150.132812 185.15625 150.902344 184.691406 151.648438 184.183594 C 152.386719 183.675781 153.105469 183.117188 153.773438 182.5 C 155.125 181.269531 156.320312 179.804688 157.191406 178.105469 C 157.609375 177.285156 157.953125 176.417969 158.191406 175.511719 C 158.65625 177.082031 159.105469 178.65625 159.511719 180.242188 L 159.90625 181.835938 L 160.273438 183.4375 C 160.503906 184.503906 160.730469 185.578125 160.914062 186.65625 C 161.304688 188.808594 161.609375 190.96875 161.800781 193.136719 C 162.1875 197.464844 162.128906 201.839844 161.332031 206.070312 C 160.933594 208.179688 160.328125 210.246094 159.527344 212.222656 L 159.453125 212.40625 L 159.375 212.589844 L 159.210938 212.957031 L 159.046875 213.320312 C 158.992188 213.445312 158.941406 213.566406 158.878906 213.683594 C 158.636719 214.15625 158.410156 214.644531 158.140625 215.101562 C 158.007812 215.332031 157.878906 215.5625 157.742188 215.792969 L 157.320312 216.472656 C 157.273438 216.546875 157.222656 216.625 157.179688 216.699219 C 157.164062 216.691406 157.152344 216.6875 157.132812 216.679688 C 153.855469 215.375 150.660156 213.839844 147.628906 212.035156 C 141.542969 208.445312 136.054688 203.851562 131.417969 198.523438 C 130.257812 197.183594 129.152344 195.804688 128.097656 194.390625 C 127.835938 194.035156 127.574219 193.679688 127.320312 193.316406 L 126.5625 192.226562 L 125.828125 191.121094 C 125.703125 190.941406 125.585938 190.75 125.472656 190.5625 L 125.121094 190.003906 C 124.191406 188.503906 123.316406 186.964844 122.503906 185.398438 C 121.695312 183.824219 120.949219 182.21875 120.269531 180.589844 C 117.546875 174.0625 115.882812 167.097656 115.375 160.035156 L 115.289062 158.710938 L 115.234375 157.382812 L 115.222656 157.050781 L 115.214844 156.714844 L 115.203125 156.050781 L 115.195312 155.382812 L 115.203125 154.71875 C 115.214844 152.945312 115.296875 151.179688 115.449219 149.414062 C 115.753906 145.882812 116.339844 142.378906 117.203125 138.945312 C 118.929688 132.078125 121.78125 125.488281 125.601562 119.511719 L 125.777344 119.230469 L 125.964844 118.953125 L 126.335938 118.398438 L 127.082031 117.300781 C 127.199219 117.113281 127.339844 116.9375 127.472656 116.757812 L 127.867188 116.222656 L 128.652344 115.148438 L 129.476562 114.105469 L 129.886719 113.578125 C 130.027344 113.40625 130.15625 113.230469 130.304688 113.058594 L 131.167969 112.050781 L 131.597656 111.542969 C 131.671875 111.457031 131.738281 111.371094 131.8125 111.289062 L 132.039062 111.042969 L 132.941406 110.0625 L 133.390625 109.570312 C 133.542969 109.40625 133.703125 109.253906 133.855469 109.097656 L 134.792969 108.148438 C 134.949219 107.992188 135.101562 107.832031 135.261719 107.679688 L 135.746094 107.222656 L 136.71875 106.308594 C 137.03125 106 137.378906 105.714844 137.710938 105.421875 L 138.710938 104.542969 C 138.875 104.390625 139.046875 104.253906 139.21875 104.113281 L 139.730469 103.691406 C 142.46875 101.421875 145.351562 99.332031 148.378906 97.425781 L 148.945312 97.0625 L 149.519531 96.71875 C 149.902344 96.488281 150.285156 96.261719 150.671875 96.03125 C 151.050781 95.792969 151.445312 95.578125 151.839844 95.359375 L 153.011719 94.699219 L 153.308594 94.535156 L 153.605469 94.375 L 154.203125 94.058594 L 155.402344 93.421875 C 156.203125 93.015625 157.015625 92.621094 157.824219 92.195312 C 157.386719 92.316406 156.949219 92.441406 156.511719 92.570312 L 155.859375 92.761719 C 155.644531 92.828125 155.417969 92.886719 155.210938 92.964844 L 153.921875 93.417969 L 153.277344 93.640625 L 152.957031 93.753906 C 152.847656 93.792969 152.746094 93.839844 152.640625 93.878906 L 151.375 94.394531 C 150.957031 94.566406 150.53125 94.738281 150.117188 94.933594 C 149.699219 95.121094 149.292969 95.320312 148.875 95.511719 L 148.253906 95.796875 C 148.050781 95.898438 147.847656 96.007812 147.644531 96.113281 C 144.386719 97.773438 141.289062 99.753906 138.394531 102.011719 L 137.851562 102.4375 C 137.671875 102.578125 137.484375 102.714844 137.316406 102.867188 L 136.265625 103.757812 C 135.558594 104.339844 134.894531 104.972656 134.214844 105.59375 L 133.707031 106.058594 C 133.539062 106.21875 133.378906 106.382812 133.21875 106.546875 L 132.242188 107.515625 C 132.078125 107.679688 131.914062 107.839844 131.753906 108.003906 L 131.285156 108.503906 L 130.347656 109.507812 L 130.113281 109.761719 C 130.035156 109.847656 129.960938 109.9375 129.886719 110.023438 L 129.433594 110.542969 L 128.53125 111.582031 C 128.378906 111.75 128.238281 111.9375 128.097656 112.113281 L 127.667969 112.648438 L 126.804688 113.71875 L 125.980469 114.828125 L 125.570312 115.378906 C 125.433594 115.566406 125.292969 115.746094 125.160156 115.9375 L 124.382812 117.074219 L 123.992188 117.644531 L 123.800781 117.925781 L 123.617188 118.21875 C 119.609375 124.378906 116.59375 131.183594 114.746094 138.308594 C 113.828125 141.871094 113.191406 145.507812 112.851562 149.167969 C 112.679688 151.003906 112.585938 152.839844 112.5625 154.679688 L 112.546875 155.367188 L 112.550781 156.054688 L 112.558594 156.746094 L 112.5625 157.089844 L 112.574219 157.433594 L 112.625 158.8125 L 112.703125 160.1875 C 112.828125 162.023438 113.019531 163.855469 113.292969 165.679688 C 113.566406 167.503906 113.90625 169.308594 114.320312 171.105469 L 114.640625 172.449219 L 114.996094 173.78125 L 115.085938 174.113281 L 115.183594 174.445312 L 115.378906 175.105469 L 115.578125 175.765625 L 115.792969 176.429688 C 116.066406 177.308594 116.375 178.179688 116.683594 179.042969 L 117.175781 180.335938 C 117.339844 180.761719 117.519531 181.1875 117.6875 181.617188 C 118.394531 183.320312 119.160156 184.996094 119.996094 186.640625 C 120.839844 188.28125 121.742188 189.886719 122.707031 191.453125 L 123.074219 192.042969 C 123.191406 192.238281 123.316406 192.429688 123.445312 192.621094 L 124.203125 193.78125 L 124.988281 194.921875 C 125.246094 195.296875 125.523438 195.664062 125.792969 196.042969 C 126.882812 197.527344 128.035156 198.972656 129.238281 200.367188 C 134.070312 205.933594 139.789062 210.742188 146.132812 214.507812 C 149.300781 216.398438 152.628906 218.019531 156.054688 219.375 C 157.773438 220.046875 159.523438 220.644531 161.28125 221.179688 L 161.941406 221.378906 C 162.164062 221.445312 162.382812 221.507812 162.609375 221.570312 L 163.945312 221.929688 C 164.84375 222.152344 165.738281 222.375 166.640625 222.5625 C 173.855469 224.113281 181.316406 224.5 188.644531 223.691406 C 190.476562 223.5 192.300781 223.210938 194.113281 222.867188 C 195.023438 222.703125 195.917969 222.496094 196.816406 222.296875 L 198.160156 221.96875 C 198.605469 221.855469 199.050781 221.734375 199.496094 221.613281 C 201.277344 221.117188 203.03125 220.558594 204.765625 219.925781 C 206.492188 219.289062 208.195312 218.582031 209.871094 217.808594 C 211.550781 217.042969 213.191406 216.195312 214.796875 215.292969 C 216.398438 214.382812 217.96875 213.417969 219.496094 212.386719 C 222.546875 210.3125 225.441406 208.015625 228.117188 205.480469 C 229.453125 204.21875 230.753906 202.90625 231.988281 201.542969 C 233.21875 200.175781 234.40625 198.757812 235.527344 197.300781 L 235.945312 196.753906 C 236.085938 196.574219 236.226562 196.386719 236.359375 196.203125 L 237.171875 195.082031 L 237.957031 193.949219 C 238.085938 193.761719 238.214844 193.566406 238.339844 193.375 L 238.71875 192.796875 C 239.714844 191.25 240.660156 189.671875 241.535156 188.050781 C 245.023438 181.566406 247.46875 174.527344 248.707031 167.273438 C 249.949219 160.023438 250.039062 152.578125 248.910156 145.320312 C 247.789062 138.113281 245.414062 131.0625 241.953125 124.625 Z M 241.953125 124.625 " fill-opacity="1" fill-rule="nonzero"/></g><path fill="#ad7f66" d="M 241.03125 101.296875 C 241.269531 101.347656 241.496094 101.4375 241.710938 101.566406 C 241.929688 101.695312 242.128906 101.859375 242.316406 102.0625 C 242.5 102.265625 242.667969 102.503906 242.820312 102.773438 C 242.96875 103.042969 243.097656 103.339844 243.203125 103.664062 C 243.308594 103.992188 243.394531 104.339844 243.453125 104.707031 C 243.515625 105.078125 243.550781 105.460938 243.5625 105.859375 C 243.570312 106.257812 243.558594 106.664062 243.519531 107.074219 C 243.480469 107.488281 243.421875 107.898438 243.335938 108.308594 C 243.25 108.71875 243.140625 109.121094 243.007812 109.515625 C 242.878906 109.90625 242.726562 110.285156 242.558594 110.644531 C 242.386719 111.003906 242.199219 111.34375 241.996094 111.65625 C 241.792969 111.96875 241.578125 112.253906 241.347656 112.507812 C 241.121094 112.765625 240.882812 112.984375 240.636719 113.171875 C 240.394531 113.359375 240.144531 113.507812 239.890625 113.621094 C 239.640625 113.730469 239.390625 113.800781 239.140625 113.832031 C 238.890625 113.863281 238.648438 113.855469 238.410156 113.804688 C 238.171875 113.757812 237.945312 113.667969 237.730469 113.539062 C 237.515625 113.410156 237.3125 113.242188 237.128906 113.039062 C 236.941406 112.835938 236.773438 112.601562 236.625 112.332031 C 236.472656 112.0625 236.347656 111.765625 236.238281 111.4375 C 236.132812 111.113281 236.046875 110.765625 235.988281 110.394531 C 235.929688 110.027344 235.890625 109.644531 235.882812 109.246094 C 235.871094 108.847656 235.882812 108.441406 235.921875 108.027344 C 235.960938 107.617188 236.023438 107.203125 236.109375 106.792969 C 236.195312 106.382812 236.300781 105.980469 236.433594 105.589844 C 236.5625 105.195312 236.714844 104.820312 236.882812 104.457031 C 237.054688 104.097656 237.242188 103.761719 237.445312 103.449219 C 237.648438 103.132812 237.863281 102.847656 238.09375 102.59375 C 238.320312 102.339844 238.558594 102.117188 238.804688 101.929688 C 239.050781 101.746094 239.296875 101.59375 239.550781 101.484375 C 239.800781 101.371094 240.050781 101.300781 240.300781 101.269531 C 240.550781 101.238281 240.796875 101.25 241.03125 101.296875 Z M 241.03125 101.296875 " fill-opacity="1" fill-rule="nonzero"/><path fill="#ad7f66" d="M 253.980469 115.898438 C 254.136719 116.082031 254.261719 116.292969 254.355469 116.527344 C 254.449219 116.761719 254.503906 117.015625 254.53125 117.289062 C 254.554688 117.5625 254.542969 117.851562 254.496094 118.15625 C 254.453125 118.460938 254.371094 118.777344 254.257812 119.097656 C 254.144531 119.421875 254 119.75 253.824219 120.078125 C 253.644531 120.40625 253.441406 120.734375 253.207031 121.058594 C 252.972656 121.378906 252.714844 121.691406 252.433594 121.996094 C 252.152344 122.300781 251.851562 122.589844 251.535156 122.863281 C 251.214844 123.136719 250.886719 123.390625 250.542969 123.621094 C 250.199219 123.851562 249.851562 124.058594 249.496094 124.242188 C 249.140625 124.425781 248.789062 124.578125 248.4375 124.703125 C 248.082031 124.828125 247.738281 124.921875 247.402344 124.984375 C 247.066406 125.046875 246.742188 125.078125 246.433594 125.078125 C 246.125 125.078125 245.839844 125.042969 245.570312 124.980469 C 245.304688 124.914062 245.0625 124.816406 244.84375 124.691406 C 244.625 124.5625 244.4375 124.40625 244.28125 124.222656 C 244.125 124.039062 244 123.832031 243.90625 123.597656 C 243.8125 123.363281 243.753906 123.109375 243.730469 122.835938 C 243.707031 122.558594 243.71875 122.269531 243.761719 121.964844 C 243.808594 121.660156 243.886719 121.347656 244 121.023438 C 244.113281 120.699219 244.261719 120.375 244.4375 120.042969 C 244.613281 119.714844 244.820312 119.390625 245.054688 119.066406 C 245.285156 118.742188 245.542969 118.429688 245.824219 118.125 C 246.105469 117.820312 246.40625 117.535156 246.726562 117.261719 C 247.042969 116.988281 247.375 116.734375 247.71875 116.503906 C 248.0625 116.269531 248.410156 116.0625 248.765625 115.882812 C 249.117188 115.699219 249.472656 115.546875 249.824219 115.421875 C 250.175781 115.296875 250.523438 115.203125 250.859375 115.136719 C 251.195312 115.074219 251.519531 115.042969 251.824219 115.046875 C 252.132812 115.046875 252.421875 115.078125 252.691406 115.144531 C 252.957031 115.210938 253.199219 115.304688 253.417969 115.433594 C 253.632812 115.558594 253.820312 115.714844 253.980469 115.898438 Z M 253.980469 115.898438 " fill-opacity="1" fill-rule="nonzero"/><path fill="#ad7f66" d="M 260.050781 130.511719 C 260.207031 130.695312 260.332031 130.902344 260.425781 131.136719 C 260.519531 131.371094 260.578125 131.625 260.601562 131.898438 C 260.625 132.171875 260.613281 132.464844 260.570312 132.769531 C 260.523438 133.074219 260.445312 133.386719 260.332031 133.710938 C 260.21875 134.035156 260.070312 134.359375 259.894531 134.6875 C 259.71875 135.019531 259.511719 135.34375 259.277344 135.667969 C 259.046875 135.988281 258.789062 136.304688 258.507812 136.609375 C 258.226562 136.910156 257.925781 137.199219 257.605469 137.472656 C 257.289062 137.746094 256.957031 138 256.613281 138.230469 C 256.269531 138.464844 255.921875 138.671875 255.566406 138.851562 C 255.214844 139.035156 254.859375 139.1875 254.507812 139.3125 C 254.15625 139.4375 253.808594 139.53125 253.472656 139.59375 C 253.136719 139.660156 252.8125 139.691406 252.507812 139.6875 C 252.199219 139.6875 251.910156 139.65625 251.640625 139.589844 C 251.375 139.523438 251.132812 139.425781 250.914062 139.300781 C 250.699219 139.171875 250.511719 139.019531 250.351562 138.832031 C 250.195312 138.648438 250.070312 138.441406 249.976562 138.207031 C 249.882812 137.972656 249.828125 137.71875 249.800781 137.445312 C 249.777344 137.171875 249.789062 136.882812 249.835938 136.574219 C 249.878906 136.269531 249.960938 135.957031 250.074219 135.632812 C 250.1875 135.3125 250.332031 134.984375 250.507812 134.65625 C 250.6875 134.324219 250.890625 134 251.125 133.675781 C 251.359375 133.355469 251.617188 133.039062 251.898438 132.738281 C 252.179688 132.433594 252.480469 132.144531 252.796875 131.871094 C 253.117188 131.597656 253.445312 131.34375 253.789062 131.113281 C 254.132812 130.878906 254.480469 130.671875 254.835938 130.492188 C 255.191406 130.308594 255.542969 130.15625 255.898438 130.03125 C 256.25 129.90625 256.59375 129.8125 256.929688 129.75 C 257.265625 129.683594 257.589844 129.652344 257.898438 129.65625 C 258.207031 129.65625 258.492188 129.691406 258.761719 129.753906 C 259.027344 129.820312 259.269531 129.917969 259.488281 130.042969 C 259.707031 130.171875 259.894531 130.328125 260.050781 130.511719 Z M 260.050781 130.511719 " fill-opacity="1" fill-rule="nonzero"/><path fill="#ad7f66" d="M 213.050781 139.25 C 214.558594 141.125 216.992188 142.164062 219.53125 141.773438 C 222.078125 141.386719 224.082031 139.65625 224.957031 137.421875 C 223.449219 135.546875 221.015625 134.511719 218.476562 134.898438 C 215.933594 135.289062 213.925781 137.015625 213.050781 139.25 Z M 213.050781 139.25 " fill-opacity="1" fill-rule="nonzero"/><path fill="#ad7f66" d="M 236.964844 125.578125 C 237.140625 125.699219 237.296875 125.847656 237.433594 126.023438 C 237.566406 126.203125 237.675781 126.40625 237.761719 126.632812 C 237.84375 126.863281 237.902344 127.113281 237.9375 127.382812 C 237.96875 127.65625 237.972656 127.941406 237.953125 128.246094 C 237.933594 128.546875 237.882812 128.859375 237.8125 129.183594 C 237.738281 129.507812 237.636719 129.832031 237.515625 130.164062 C 237.390625 130.496094 237.242188 130.824219 237.074219 131.148438 C 236.90625 131.472656 236.714844 131.792969 236.507812 132.097656 C 236.300781 132.40625 236.078125 132.703125 235.839844 132.980469 C 235.601562 133.257812 235.351562 133.519531 235.089844 133.757812 C 234.832031 133.996094 234.566406 134.210938 234.292969 134.398438 C 234.023438 134.589844 233.75 134.75 233.476562 134.882812 C 233.203125 135.015625 232.9375 135.117188 232.671875 135.191406 C 232.410156 135.261719 232.15625 135.300781 231.910156 135.308594 C 231.667969 135.316406 231.4375 135.289062 231.222656 135.234375 C 231.007812 135.175781 230.8125 135.085938 230.632812 134.964844 C 230.457031 134.847656 230.300781 134.699219 230.164062 134.519531 C 230.03125 134.339844 229.921875 134.136719 229.835938 133.910156 C 229.753906 133.679688 229.695312 133.429688 229.660156 133.160156 C 229.628906 132.890625 229.625 132.601562 229.644531 132.300781 C 229.664062 131.996094 229.714844 131.683594 229.789062 131.359375 C 229.859375 131.039062 229.960938 130.710938 230.085938 130.378906 C 230.207031 130.050781 230.355469 129.722656 230.523438 129.394531 C 230.691406 129.070312 230.882812 128.753906 231.089844 128.445312 C 231.296875 128.136719 231.519531 127.84375 231.757812 127.5625 C 231.996094 127.285156 232.246094 127.027344 232.507812 126.789062 C 232.765625 126.546875 233.03125 126.335938 233.304688 126.144531 C 233.574219 125.957031 233.847656 125.792969 234.121094 125.660156 C 234.394531 125.527344 234.660156 125.425781 234.925781 125.355469 C 235.1875 125.28125 235.441406 125.242188 235.6875 125.234375 C 235.929688 125.230469 236.160156 125.253906 236.375 125.3125 C 236.589844 125.371094 236.785156 125.457031 236.964844 125.578125 Z M 236.964844 125.578125 " fill-opacity="1" fill-rule="nonzero"/><path fill="#ad7f66" d="M 217.664062 128.402344 C 217.695312 128.617188 217.691406 128.839844 217.652344 129.0625 C 217.613281 129.285156 217.535156 129.507812 217.421875 129.730469 C 217.308594 129.953125 217.164062 130.167969 216.980469 130.382812 C 216.800781 130.59375 216.589844 130.796875 216.347656 130.988281 C 216.105469 131.183594 215.839844 131.363281 215.546875 131.535156 C 215.25 131.703125 214.9375 131.855469 214.605469 131.988281 C 214.269531 132.125 213.921875 132.242188 213.5625 132.34375 C 213.199219 132.441406 212.832031 132.519531 212.457031 132.578125 C 212.082031 132.632812 211.707031 132.671875 211.332031 132.683594 C 210.957031 132.699219 210.589844 132.691406 210.230469 132.660156 C 209.871094 132.632812 209.527344 132.582031 209.195312 132.507812 C 208.867188 132.4375 208.558594 132.34375 208.269531 132.230469 C 207.980469 132.121094 207.71875 131.988281 207.480469 131.839844 C 207.246094 131.691406 207.039062 131.53125 206.867188 131.351562 C 206.691406 131.175781 206.550781 130.984375 206.445312 130.785156 C 206.339844 130.582031 206.269531 130.375 206.238281 130.15625 C 206.203125 129.941406 206.207031 129.71875 206.246094 129.496094 C 206.289062 129.273438 206.363281 129.050781 206.476562 128.828125 C 206.589844 128.605469 206.738281 128.390625 206.917969 128.175781 C 207.097656 127.964844 207.308594 127.761719 207.550781 127.570312 C 207.792969 127.375 208.0625 127.195312 208.355469 127.023438 C 208.648438 126.855469 208.960938 126.703125 209.296875 126.570312 C 209.628906 126.433594 209.976562 126.316406 210.339844 126.214844 C 210.699219 126.117188 211.066406 126.039062 211.445312 125.980469 C 211.820312 125.925781 212.191406 125.886719 212.566406 125.875 C 212.941406 125.859375 213.308594 125.867188 213.667969 125.898438 C 214.027344 125.925781 214.371094 125.976562 214.703125 126.050781 C 215.035156 126.121094 215.34375 126.214844 215.632812 126.328125 C 215.921875 126.4375 216.183594 126.570312 216.417969 126.71875 C 216.65625 126.867188 216.859375 127.027344 217.035156 127.207031 C 217.207031 127.382812 217.347656 127.574219 217.453125 127.773438 C 217.558594 127.976562 217.628906 128.183594 217.664062 128.402344 Z M 217.664062 128.402344 " fill-opacity="1" fill-rule="nonzero"/><path fill="#ad7f66" d="M 228.675781 121.980469 C 230.097656 120.121094 230.328125 117.734375 229.496094 115.71875 C 227.332031 115.4375 225.085938 116.28125 223.664062 118.132812 C 222.242188 119.992188 222.007812 122.378906 222.84375 124.394531 C 225 124.675781 227.253906 123.835938 228.675781 121.980469 Z M 228.675781 121.980469 " fill-opacity="1" fill-rule="nonzero"/><path fill="#ad7f66" d="M 210.199219 119.96875 C 210.230469 120.167969 210.226562 120.371094 210.191406 120.578125 C 210.152344 120.785156 210.082031 120.992188 209.976562 121.195312 C 209.875 121.402344 209.738281 121.601562 209.570312 121.796875 C 209.40625 121.992188 209.210938 122.179688 208.988281 122.359375 C 208.765625 122.539062 208.515625 122.707031 208.246094 122.863281 C 207.976562 123.015625 207.6875 123.15625 207.378906 123.28125 C 207.070312 123.410156 206.75 123.515625 206.414062 123.609375 C 206.082031 123.699219 205.742188 123.773438 205.394531 123.824219 C 205.050781 123.878906 204.703125 123.910156 204.359375 123.925781 C 204.011719 123.9375 203.675781 123.929688 203.34375 123.902344 C 203.011719 123.875 202.691406 123.828125 202.386719 123.761719 C 202.082031 123.695312 201.796875 123.609375 201.53125 123.503906 C 201.265625 123.402344 201.023438 123.28125 200.804688 123.144531 C 200.585938 123.007812 200.398438 122.855469 200.234375 122.691406 C 200.074219 122.527344 199.945312 122.351562 199.847656 122.167969 C 199.75 121.980469 199.6875 121.789062 199.65625 121.589844 C 199.625 121.386719 199.628906 121.183594 199.664062 120.980469 C 199.703125 120.773438 199.773438 120.566406 199.878906 120.359375 C 199.980469 120.15625 200.117188 119.957031 200.285156 119.757812 C 200.449219 119.5625 200.644531 119.375 200.867188 119.199219 C 201.089844 119.019531 201.339844 118.851562 201.609375 118.695312 C 201.878906 118.539062 202.167969 118.398438 202.476562 118.273438 C 202.785156 118.148438 203.105469 118.039062 203.441406 117.949219 C 203.773438 117.859375 204.113281 117.785156 204.460938 117.730469 C 204.804688 117.679688 205.152344 117.644531 205.496094 117.632812 C 205.84375 117.621094 206.179688 117.625 206.511719 117.652344 C 206.84375 117.679688 207.164062 117.730469 207.46875 117.796875 C 207.773438 117.863281 208.058594 117.949219 208.324219 118.050781 C 208.589844 118.15625 208.832031 118.277344 209.050781 118.414062 C 209.269531 118.550781 209.457031 118.699219 209.621094 118.863281 C 209.78125 119.027344 209.910156 119.203125 210.007812 119.390625 C 210.105469 119.574219 210.167969 119.769531 210.199219 119.96875 Z M 210.199219 119.96875 " fill-opacity="1" fill-rule="nonzero"/><path fill="#ad7f66" d="M 219.402344 110.664062 C 219.40625 111.046875 219.390625 111.429688 219.351562 111.804688 C 219.3125 112.179688 219.253906 112.546875 219.175781 112.902344 C 219.097656 113.257812 218.996094 113.59375 218.878906 113.914062 C 218.757812 114.234375 218.625 114.53125 218.472656 114.804688 C 218.320312 115.078125 218.152344 115.324219 217.972656 115.539062 C 217.789062 115.753906 217.597656 115.9375 217.394531 116.085938 C 217.195312 116.234375 216.984375 116.347656 216.769531 116.425781 C 216.550781 116.503906 216.332031 116.542969 216.113281 116.546875 C 215.890625 116.550781 215.671875 116.515625 215.453125 116.445312 C 215.234375 116.375 215.023438 116.265625 214.816406 116.121094 C 214.609375 115.976562 214.414062 115.800781 214.226562 115.589844 C 214.039062 115.378906 213.867188 115.140625 213.707031 114.871094 C 213.546875 114.601562 213.402344 114.308594 213.273438 113.992188 C 213.148438 113.675781 213.039062 113.339844 212.949219 112.988281 C 212.859375 112.636719 212.789062 112.273438 212.742188 111.894531 C 212.695312 111.519531 212.667969 111.140625 212.660156 110.757812 C 212.65625 110.375 212.671875 109.996094 212.710938 109.621094 C 212.75 109.242188 212.808594 108.875 212.886719 108.523438 C 212.96875 108.167969 213.066406 107.828125 213.183594 107.507812 C 213.304688 107.1875 213.4375 106.890625 213.589844 106.617188 C 213.742188 106.34375 213.910156 106.101562 214.09375 105.886719 C 214.273438 105.667969 214.464844 105.488281 214.667969 105.335938 C 214.871094 105.1875 215.078125 105.074219 215.292969 104.996094 C 215.511719 104.917969 215.730469 104.878906 215.949219 104.875 C 216.171875 104.871094 216.390625 104.90625 216.609375 104.980469 C 216.828125 105.050781 217.039062 105.15625 217.246094 105.300781 C 217.453125 105.445312 217.648438 105.621094 217.835938 105.832031 C 218.023438 106.042969 218.195312 106.28125 218.355469 106.550781 C 218.515625 106.820312 218.660156 107.113281 218.789062 107.429688 C 218.914062 107.746094 219.023438 108.082031 219.113281 108.433594 C 219.203125 108.789062 219.273438 109.152344 219.320312 109.527344 C 219.367188 109.902344 219.394531 110.28125 219.402344 110.664062 Z M 219.402344 110.664062 " fill-opacity="1" fill-rule="nonzero"/><path fill="#ad7f66" d="M 206.699219 113.71875 C 207.429688 111.507812 206.988281 108.984375 205.324219 107.121094 C 203.664062 105.257812 201.195312 104.542969 198.921875 105.015625 C 198.195312 107.230469 198.632812 109.753906 200.300781 111.613281 C 201.960938 113.472656 204.421875 114.195312 206.699219 113.71875 Z M 206.699219 113.71875 " fill-opacity="1" fill-rule="nonzero"/><g fill="#81a969" fill-opacity="0.4"><g transform="translate(116.018288, 268.096374)"><g><path d="M 40.5 -37.78125 L 44.921875 0.0625 L 40.671875 0 L 37.1875 -29.6875 L 21.953125 -0.9375 L 21.78125 -0.9375 L 7.078125 -29.21875 L 3.125 0.0625 L 2.125 0.0625 L 7.265625 -37.78125 L 7.4375 -37.78125 L 23.734375 -6.3125 L 40.3125 -37.78125 Z M 40.5 -37.78125 "/></g></g></g><g fill="#81a969" fill-opacity="0.4"><g transform="translate(163.289753, 268.096374)"><g><path d="M 28.8125 -37.078125 L 29.921875 -37.078125 L 18.125 -17.296875 L 18.125 0.0625 L 13.875 0.0625 L 13.875 -16.109375 L 1.890625 -37.078125 L 6.78125 -37.078125 L 17.53125 -18.234375 Z M 28.8125 -37.078125 "/></g></g></g><g fill="#81a969" fill-opacity="0.4"><g transform="translate(195.158159, 268.096374)"><g><path d="M 1.46875 -2.78125 C 2.5 -1.945312 3.789062 -1.175781 5.34375 -0.46875 C 6.894531 0.238281 8.929688 0.59375 11.453125 0.59375 C 13.066406 0.59375 14.5625 0.28125 15.9375 -0.34375 C 17.3125 -0.976562 18.421875 -1.9375 19.265625 -3.21875 C 20.117188 -4.5 20.546875 -6.101562 20.546875 -8.03125 C 20.546875 -9.675781 20.207031 -11.03125 19.53125 -12.09375 C 18.863281 -13.15625 17.96875 -14.039062 16.84375 -14.75 C 15.726562 -15.46875 14.5 -16.082031 13.15625 -16.59375 C 11.820312 -17.101562 10.472656 -17.640625 9.109375 -18.203125 C 7.753906 -18.773438 6.515625 -19.453125 5.390625 -20.234375 C 4.273438 -21.023438 3.382812 -22.039062 2.71875 -23.28125 C 2.050781 -24.519531 1.71875 -26.085938 1.71875 -27.984375 C 1.71875 -29.828125 2.070312 -31.398438 2.78125 -32.703125 C 3.488281 -34.003906 4.410156 -35.054688 5.546875 -35.859375 C 6.691406 -36.671875 7.910156 -37.257812 9.203125 -37.625 C 10.503906 -38 11.742188 -38.1875 12.921875 -38.1875 C 14.503906 -38.1875 15.914062 -38 17.15625 -37.625 C 18.394531 -37.257812 19.375 -36.890625 20.09375 -36.515625 C 20.820312 -36.140625 21.1875 -35.953125 21.1875 -35.953125 L 21.25 -34.765625 C 21.25 -34.765625 20.90625 -34.960938 20.21875 -35.359375 C 19.53125 -35.753906 18.566406 -36.15625 17.328125 -36.5625 C 16.085938 -36.976562 14.617188 -37.1875 12.921875 -37.1875 C 10.410156 -37.1875 8.453125 -36.4375 7.046875 -34.9375 C 5.648438 -33.445312 4.953125 -31.640625 4.953125 -29.515625 C 4.953125 -27.742188 5.414062 -26.304688 6.34375 -25.203125 C 7.269531 -24.097656 8.453125 -23.179688 9.890625 -22.453125 C 11.328125 -21.734375 12.851562 -21.046875 14.46875 -20.390625 C 16.082031 -19.742188 17.601562 -19 19.03125 -18.15625 C 20.46875 -17.3125 21.640625 -16.195312 22.546875 -14.8125 C 23.453125 -13.4375 23.90625 -11.664062 23.90625 -9.5 C 23.90625 -7.300781 23.3125 -5.375 22.125 -3.71875 C 20.945312 -2.0625 19.40625 -0.785156 17.5 0.109375 C 15.59375 1.015625 13.578125 1.46875 11.453125 1.46875 C 9.328125 1.46875 7.523438 1.234375 6.046875 0.765625 C 4.578125 0.296875 3.445312 -0.171875 2.65625 -0.640625 C 1.863281 -1.117188 1.46875 -1.359375 1.46875 -1.359375 Z M 1.46875 -2.78125 "/></g></g></g><g fill="#81a969" fill-opacity="0.4"><g transform="translate(221.420083, 268.096374)"><g><path d="M 30.875 0.0625 L 24.5 -14.875 L 10.03125 -14.875 L 3.421875 0.0625 L 2.0625 0.0625 L 18.890625 -37.78125 L 19.25 -37.78125 L 35.421875 0.0625 Z M 10.5 -15.828125 L 24.078125 -15.828125 L 17.421875 -31.40625 Z M 10.5 -15.828125 "/></g></g></g><g fill="#ad7f66" fill-opacity="1"><g transform="translate(116.018288, 268.096374)"><g><path d="M 40.5 -37.78125 L 44.921875 0.0625 L 40.671875 0 L 37.1875 -29.6875 L 21.953125 -0.9375 L 21.78125 -0.9375 L 7.078125 -29.21875 L 3.125 0.0625 L 2.125 0.0625 L 7.265625 -37.78125 L 7.4375 -37.78125 L 23.734375 -6.3125 L 40.3125 -37.78125 Z M 40.5 -37.78125 "/></g></g></g><g fill="#ad7f66" fill-opacity="1"><g transform="translate(163.289753, 268.096374)"><g><path d="M 28.8125 -37.078125 L 29.921875 -37.078125 L 18.125 -17.296875 L 18.125 0.0625 L 13.875 0.0625 L 13.875 -16.109375 L 1.890625 -37.078125 L 6.78125 -37.078125 L 17.53125 -18.234375 Z M 28.8125 -37.078125 "/></g></g></g><g fill="#ad7f66" fill-opacity="1"><g transform="translate(195.158159, 268.096374)"><g><path d="M 1.46875 -2.78125 C 2.5 -1.945312 3.789062 -1.175781 5.34375 -0.46875 C 6.894531 0.238281 8.929688 0.59375 11.453125 0.59375 C 13.066406 0.59375 14.5625 0.28125 15.9375 -0.34375 C 17.3125 -0.976562 18.421875 -1.9375 19.265625 -3.21875 C 20.117188 -4.5 20.546875 -6.101562 20.546875 -8.03125 C 20.546875 -9.675781 20.207031 -11.03125 19.53125 -12.09375 C 18.863281 -13.15625 17.96875 -14.039062 16.84375 -14.75 C 15.726562 -15.46875 14.5 -16.082031 13.15625 -16.59375 C 11.820312 -17.101562 10.472656 -17.640625 9.109375 -18.203125 C 7.753906 -18.773438 6.515625 -19.453125 5.390625 -20.234375 C 4.273438 -21.023438 3.382812 -22.039062 2.71875 -23.28125 C 2.050781 -24.519531 1.71875 -26.085938 1.71875 -27.984375 C 1.71875 -29.828125 2.070312 -31.398438 2.78125 -32.703125 C 3.488281 -34.003906 4.410156 -35.054688 5.546875 -35.859375 C 6.691406 -36.671875 7.910156 -37.257812 9.203125 -37.625 C 10.503906 -38 11.742188 -38.1875 12.921875 -38.1875 C 14.503906 -38.1875 15.914062 -38 17.15625 -37.625 C 18.394531 -37.257812 19.375 -36.890625 20.09375 -36.515625 C 20.820312 -36.140625 21.1875 -35.953125 21.1875 -35.953125 L 21.25 -34.765625 C 21.25 -34.765625 20.90625 -34.960938 20.21875 -35.359375 C 19.53125 -35.753906 18.566406 -36.15625 17.328125 -36.5625 C 16.085938 -36.976562 14.617188 -37.1875 12.921875 -37.1875 C 10.410156 -37.1875 8.453125 -36.4375 7.046875 -34.9375 C 5.648438 -33.445312 4.953125 -31.640625 4.953125 -29.515625 C 4.953125 -27.742188 5.414062 -26.304688 6.34375 -25.203125 C 7.269531 -24.097656 8.453125 -23.179688 9.890625 -22.453125 C 11.328125 -21.734375 12.851562 -21.046875 14.46875 -20.390625 C 16.082031 -19.742188 17.601562 -19 19.03125 -18.15625 C 20.46875 -17.3125 21.640625 -16.195312 22.546875 -14.8125 C 23.453125 -13.4375 23.90625 -11.664062 23.90625 -9.5 C 23.90625 -7.300781 23.3125 -5.375 22.125 -3.71875 C 20.945312 -2.0625 19.40625 -0.785156 17.5 0.109375 C 15.59375 1.015625 13.578125 1.46875 11.453125 1.46875 C 9.328125 1.46875 7.523438 1.234375 6.046875 0.765625 C 4.578125 0.296875 3.445312 -0.171875 2.65625 -0.640625 C 1.863281 -1.117188 1.46875 -1.359375 1.46875 -1.359375 Z M 1.46875 -2.78125 "/></g></g></g><g fill="#ad7f66" fill-opacity="1"><g transform="translate(221.420083, 268.096374)"><g><path d="M 30.875 0.0625 L 24.5 -14.875 L 10.03125 -14.875 L 3.421875 0.0625 L 2.0625 0.0625 L 18.890625 -37.78125 L 19.25 -37.78125 L 35.421875 0.0625 Z M 10.5 -15.828125 L 24.078125 -15.828125 L 17.421875 -31.40625 Z M 10.5 -15.828125 "/></g></g></g><g fill="#ad7f66" fill-opacity="1"><g transform="translate(131.810042, 283.390381)"><g><path d="M 1.109375 0 L 1.109375 -7.609375 L 2 -7.609375 L 4.984375 -3.09375 L 7.953125 -7.609375 L 8.84375 -7.609375 L 8.84375 0 L 7.890625 0 L 7.890625 -5.8125 L 5.359375 -2.015625 L 4.578125 -2.015625 L 2.0625 -5.828125 L 2.0625 0 Z M 1.109375 0 "/></g></g></g><g fill="#ad7f66" fill-opacity="1"><g transform="translate(149.075806, 283.390381)"><g><path d="M 0.1875 0 L 3.3125 -7.609375 L 4.203125 -7.609375 L 7.328125 0 L 6.3125 0 L 5.609375 -1.734375 L 1.90625 -1.734375 L 1.203125 0 Z M 2.265625 -2.609375 L 5.25 -2.609375 L 3.75 -6.265625 Z M 2.265625 -2.609375 "/></g></g></g><g fill="#ad7f66" fill-opacity="1"><g transform="translate(163.910832, 283.390381)"><g><path d="M 3.640625 0.140625 C 3.023438 0.140625 2.492188 0.0351562 2.046875 -0.171875 C 1.609375 -0.378906 1.265625 -0.664062 1.015625 -1.03125 C 0.773438 -1.40625 0.65625 -1.835938 0.65625 -2.328125 L 1.609375 -2.328125 C 1.617188 -1.847656 1.8125 -1.46875 2.1875 -1.1875 C 2.5625 -0.90625 3.046875 -0.765625 3.640625 -0.765625 C 4.171875 -0.765625 4.59375 -0.867188 4.90625 -1.078125 C 5.226562 -1.296875 5.390625 -1.59375 5.390625 -1.96875 C 5.390625 -2.320312 5.234375 -2.601562 4.921875 -2.8125 C 4.617188 -3.03125 4.125 -3.21875 3.4375 -3.375 C 2.507812 -3.601562 1.828125 -3.890625 1.390625 -4.234375 C 0.953125 -4.585938 0.734375 -5.054688 0.734375 -5.640625 C 0.734375 -6.285156 0.976562 -6.796875 1.46875 -7.171875 C 1.957031 -7.554688 2.617188 -7.75 3.453125 -7.75 C 4.304688 -7.75 4.976562 -7.535156 5.46875 -7.109375 C 5.96875 -6.679688 6.222656 -6.097656 6.234375 -5.359375 L 5.28125 -5.359375 C 5.28125 -5.804688 5.113281 -6.160156 4.78125 -6.421875 C 4.457031 -6.691406 4.015625 -6.828125 3.453125 -6.828125 C 2.910156 -6.828125 2.484375 -6.71875 2.171875 -6.5 C 1.867188 -6.289062 1.71875 -6.003906 1.71875 -5.640625 C 1.71875 -5.335938 1.859375 -5.078125 2.140625 -4.859375 C 2.429688 -4.648438 2.945312 -4.453125 3.6875 -4.265625 C 4.65625 -4.023438 5.34375 -3.722656 5.75 -3.359375 C 6.164062 -3.003906 6.375 -2.550781 6.375 -2 C 6.375 -1.34375 6.125 -0.820312 5.625 -0.4375 C 5.132812 -0.0507812 4.472656 0.140625 3.640625 0.140625 Z M 3.640625 0.140625 "/></g></g></g><g fill="#ad7f66" fill-opacity="1"><g transform="translate(178.257551, 283.390381)"><g><path d="M 3.640625 0.140625 C 3.023438 0.140625 2.492188 0.0351562 2.046875 -0.171875 C 1.609375 -0.378906 1.265625 -0.664062 1.015625 -1.03125 C 0.773438 -1.40625 0.65625 -1.835938 0.65625 -2.328125 L 1.609375 -2.328125 C 1.617188 -1.847656 1.8125 -1.46875 2.1875 -1.1875 C 2.5625 -0.90625 3.046875 -0.765625 3.640625 -0.765625 C 4.171875 -0.765625 4.59375 -0.867188 4.90625 -1.078125 C 5.226562 -1.296875 5.390625 -1.59375 5.390625 -1.96875 C 5.390625 -2.320312 5.234375 -2.601562 4.921875 -2.8125 C 4.617188 -3.03125 4.125 -3.21875 3.4375 -3.375 C 2.507812 -3.601562 1.828125 -3.890625 1.390625 -4.234375 C 0.953125 -4.585938 0.734375 -5.054688 0.734375 -5.640625 C 0.734375 -6.285156 0.976562 -6.796875 1.46875 -7.171875 C 1.957031 -7.554688 2.617188 -7.75 3.453125 -7.75 C 4.304688 -7.75 4.976562 -7.535156 5.46875 -7.109375 C 5.96875 -6.679688 6.222656 -6.097656 6.234375 -5.359375 L 5.28125 -5.359375 C 5.28125 -5.804688 5.113281 -6.160156 4.78125 -6.421875 C 4.457031 -6.691406 4.015625 -6.828125 3.453125 -6.828125 C 2.910156 -6.828125 2.484375 -6.71875 2.171875 -6.5 C 1.867188 -6.289062 1.71875 -6.003906 1.71875 -5.640625 C 1.71875 -5.335938 1.859375 -5.078125 2.140625 -4.859375 C 2.429688 -4.648438 2.945312 -4.453125 3.6875 -4.265625 C 4.65625 -4.023438 5.34375 -3.722656 5.75 -3.359375 C 6.164062 -3.003906 6.375 -2.550781 6.375 -2 C 6.375 -1.34375 6.125 -0.820312 5.625 -0.4375 C 5.132812 -0.0507812 4.472656 0.140625 3.640625 0.140625 Z M 3.640625 0.140625 "/></g></g></g><g fill="#ad7f66" fill-opacity="1"><g transform="translate(192.60427, 283.390381)"><g><path d="M 0.1875 0 L 3.3125 -7.609375 L 4.203125 -7.609375 L 7.328125 0 L 6.3125 0 L 5.609375 -1.734375 L 1.90625 -1.734375 L 1.203125 0 Z M 2.265625 -2.609375 L 5.25 -2.609375 L 3.75 -6.265625 Z M 2.265625 -2.609375 "/></g></g></g><g fill="#ad7f66" fill-opacity="1"><g transform="translate(207.439297, 283.390381)"><g><path d="M 4.5 0.140625 C 3.9375 0.140625 3.421875 0.046875 2.953125 -0.140625 C 2.484375 -0.335938 2.070312 -0.613281 1.71875 -0.96875 C 1.375 -1.320312 1.101562 -1.738281 0.90625 -2.21875 C 0.71875 -2.695312 0.625 -3.222656 0.625 -3.796875 C 0.625 -4.367188 0.71875 -4.894531 0.90625 -5.375 C 1.09375 -5.851562 1.359375 -6.269531 1.703125 -6.625 C 2.054688 -6.976562 2.46875 -7.253906 2.9375 -7.453125 C 3.40625 -7.648438 3.914062 -7.75 4.46875 -7.75 C 5.050781 -7.75 5.585938 -7.640625 6.078125 -7.421875 C 6.566406 -7.210938 6.988281 -6.921875 7.34375 -6.546875 C 7.707031 -6.171875 7.972656 -5.734375 8.140625 -5.234375 L 7.09375 -5.234375 C 6.851562 -5.722656 6.507812 -6.101562 6.0625 -6.375 C 5.613281 -6.644531 5.09375 -6.78125 4.5 -6.78125 C 3.9375 -6.78125 3.4375 -6.65625 3 -6.40625 C 2.5625 -6.15625 2.21875 -5.804688 1.96875 -5.359375 C 1.726562 -4.910156 1.609375 -4.390625 1.609375 -3.796875 C 1.609375 -3.210938 1.734375 -2.695312 1.984375 -2.25 C 2.234375 -1.800781 2.578125 -1.445312 3.015625 -1.1875 C 3.453125 -0.9375 3.953125 -0.8125 4.515625 -0.8125 C 5.023438 -0.8125 5.476562 -0.910156 5.875 -1.109375 C 6.28125 -1.316406 6.609375 -1.597656 6.859375 -1.953125 C 7.109375 -2.316406 7.265625 -2.738281 7.328125 -3.21875 L 4.234375 -3.21875 L 4.234375 -4.125 L 8.359375 -4.125 C 8.378906 -3.289062 8.226562 -2.550781 7.90625 -1.90625 C 7.582031 -1.269531 7.128906 -0.769531 6.546875 -0.40625 C 5.960938 -0.0390625 5.28125 0.140625 4.5 0.140625 Z M 4.5 0.140625 "/></g></g></g><g fill="#ad7f66" fill-opacity="1"><g transform="translate(223.717573, 283.390381)"><g><path d="M 4.5 0.140625 C 3.9375 0.140625 3.421875 0.046875 2.953125 -0.140625 C 2.484375 -0.335938 2.070312 -0.613281 1.71875 -0.96875 C 1.375 -1.320312 1.101562 -1.738281 0.90625 -2.21875 C 0.71875 -2.695312 0.625 -3.222656 0.625 -3.796875 C 0.625 -4.367188 0.71875 -4.894531 0.90625 -5.375 C 1.09375 -5.851562 1.359375 -6.269531 1.703125 -6.625 C 2.054688 -6.976562 2.46875 -7.253906 2.9375 -7.453125 C 3.40625 -7.648438 3.914062 -7.75 4.46875 -7.75 C 5.050781 -7.75 5.585938 -7.640625 6.078125 -7.421875 C 6.566406 -7.210938 6.988281 -6.921875 7.34375 -6.546875 C 7.707031 -6.171875 7.972656 -5.734375 8.140625 -5.234375 L 7.09375 -5.234375 C 6.851562 -5.722656 6.507812 -6.101562 6.0625 -6.375 C 5.613281 -6.644531 5.09375 -6.78125 4.5 -6.78125 C 3.9375 -6.78125 3.4375 -6.65625 3 -6.40625 C 2.5625 -6.15625 2.21875 -5.804688 1.96875 -5.359375 C 1.726562 -4.910156 1.609375 -4.390625 1.609375 -3.796875 C 1.609375 -3.210938 1.734375 -2.695312 1.984375 -2.25 C 2.234375 -1.800781 2.578125 -1.445312 3.015625 -1.1875 C 3.453125 -0.9375 3.953125 -0.8125 4.515625 -0.8125 C 5.023438 -0.8125 5.476562 -0.910156 5.875 -1.109375 C 6.28125 -1.316406 6.609375 -1.597656 6.859375 -1.953125 C 7.109375 -2.316406 7.265625 -2.738281 7.328125 -3.21875 L 4.234375 -3.21875 L 4.234375 -4.125 L 8.359375 -4.125 C 8.378906 -3.289062 8.226562 -2.550781 7.90625 -1.90625 C 7.582031 -1.269531 7.128906 -0.769531 6.546875 -0.40625 C 5.960938 -0.0390625 5.28125 0.140625 4.5 0.140625 Z M 4.5 0.140625 "/></g></g></g><g fill="#ad7f66" fill-opacity="1"><g transform="translate(239.995843, 283.390381)"><g><path d="M 1.109375 0 L 1.109375 -7.609375 L 2.0625 -7.609375 L 2.0625 0 Z M 1.109375 0 "/></g></g></g><g fill="#ad7f66" fill-opacity="1"><g transform="translate(99.853013, 298.39038)"><g><path d="M 1.109375 0 L 1.109375 -7.609375 L 3.6875 -7.609375 C 4.257812 -7.609375 4.753906 -7.5 5.171875 -7.28125 C 5.597656 -7.070312 5.925781 -6.773438 6.15625 -6.390625 C 6.382812 -6.015625 6.5 -5.566406 6.5 -5.046875 C 6.5 -4.523438 6.382812 -4.070312 6.15625 -3.6875 C 5.925781 -3.3125 5.597656 -3.019531 5.171875 -2.8125 C 4.753906 -2.601562 4.257812 -2.5 3.6875 -2.5 L 2.0625 -2.5 L 2.0625 0 Z M 2.0625 -3.390625 L 3.65625 -3.390625 C 4.90625 -3.390625 5.53125 -3.9375 5.53125 -5.03125 C 5.53125 -6.132812 4.90625 -6.6875 3.65625 -6.6875 L 2.0625 -6.6875 Z M 2.0625 -3.390625 "/></g></g></g><g fill="#ad7f66" fill-opacity="1"><g transform="translate(114.112917, 298.39038)"><g><path d="M 1.109375 0 L 1.109375 -7.609375 L 4 -7.609375 C 4.53125 -7.609375 4.988281 -7.503906 5.375 -7.296875 C 5.769531 -7.097656 6.078125 -6.816406 6.296875 -6.453125 C 6.515625 -6.097656 6.625 -5.664062 6.625 -5.15625 C 6.625 -4.539062 6.460938 -4.03125 6.140625 -3.625 C 5.828125 -3.226562 5.390625 -2.960938 4.828125 -2.828125 L 6.75 0 L 5.59375 0 L 3.734375 -2.71875 L 2.0625 -2.71875 L 2.0625 0 Z M 2.0625 -3.640625 L 3.90625 -3.640625 C 4.457031 -3.640625 4.882812 -3.769531 5.1875 -4.03125 C 5.488281 -4.300781 5.640625 -4.675781 5.640625 -5.15625 C 5.640625 -5.644531 5.488281 -6.019531 5.1875 -6.28125 C 4.882812 -6.550781 4.457031 -6.6875 3.90625 -6.6875 L 2.0625 -6.6875 Z M 2.0625 -3.640625 "/></g></g></g><g fill="#ad7f66" fill-opacity="1"><g transform="translate(128.828582, 298.39038)"><g><path d="M 4.5625 0.140625 C 3.789062 0.140625 3.109375 -0.0234375 2.515625 -0.359375 C 1.921875 -0.703125 1.457031 -1.171875 1.125 -1.765625 C 0.789062 -2.359375 0.625 -3.035156 0.625 -3.796875 C 0.625 -4.578125 0.789062 -5.257812 1.125 -5.84375 C 1.457031 -6.4375 1.921875 -6.898438 2.515625 -7.234375 C 3.109375 -7.578125 3.789062 -7.75 4.5625 -7.75 C 5.332031 -7.75 6.015625 -7.578125 6.609375 -7.234375 C 7.203125 -6.898438 7.664062 -6.4375 8 -5.84375 C 8.332031 -5.257812 8.5 -4.578125 8.5 -3.796875 C 8.5 -3.035156 8.332031 -2.359375 8 -1.765625 C 7.664062 -1.171875 7.203125 -0.703125 6.609375 -0.359375 C 6.015625 -0.0234375 5.332031 0.140625 4.5625 0.140625 Z M 1.609375 -3.796875 C 1.609375 -3.210938 1.734375 -2.695312 1.984375 -2.25 C 2.234375 -1.800781 2.578125 -1.445312 3.015625 -1.1875 C 3.460938 -0.9375 3.976562 -0.8125 4.5625 -0.8125 C 5.144531 -0.8125 5.65625 -0.9375 6.09375 -1.1875 C 6.539062 -1.445312 6.890625 -1.800781 7.140625 -2.25 C 7.390625 -2.695312 7.515625 -3.210938 7.515625 -3.796875 C 7.515625 -4.390625 7.390625 -4.910156 7.140625 -5.359375 C 6.890625 -5.804688 6.539062 -6.15625 6.09375 -6.40625 C 5.65625 -6.65625 5.144531 -6.78125 4.5625 -6.78125 C 3.976562 -6.78125 3.460938 -6.65625 3.015625 -6.40625 C 2.578125 -6.15625 2.234375 -5.804688 1.984375 -5.359375 C 1.734375 -4.910156 1.609375 -4.390625 1.609375 -3.796875 Z M 1.609375 -3.796875 "/></g></g></g><g fill="#ad7f66" fill-opacity="1"><g transform="translate(145.269638, 298.39038)"><g><path d="M 1.109375 0 L 1.109375 -7.609375 L 5.46875 -7.609375 L 5.46875 -6.71875 L 2.0625 -6.71875 L 2.0625 -4.078125 L 5.1875 -4.078125 L 5.1875 -3.203125 L 2.0625 -3.203125 L 2.0625 0 Z M 1.109375 0 "/></g></g></g><g fill="#ad7f66" fill-opacity="1"><g transform="translate(158.650567, 298.39038)"><g><path d="M 1.109375 0 L 1.109375 -7.609375 L 5.71875 -7.609375 L 5.71875 -6.71875 L 2.0625 -6.71875 L 2.0625 -4.3125 L 5.453125 -4.3125 L 5.453125 -3.4375 L 2.0625 -3.4375 L 2.0625 -0.890625 L 5.84375 -0.890625 L 5.84375 0 Z M 1.109375 0 "/></g></g></g><g fill="#ad7f66" fill-opacity="1"><g transform="translate(172.519816, 298.39038)"><g><path d="M 3.640625 0.140625 C 3.023438 0.140625 2.492188 0.0351562 2.046875 -0.171875 C 1.609375 -0.378906 1.265625 -0.664062 1.015625 -1.03125 C 0.773438 -1.40625 0.65625 -1.835938 0.65625 -2.328125 L 1.609375 -2.328125 C 1.617188 -1.847656 1.8125 -1.46875 2.1875 -1.1875 C 2.5625 -0.90625 3.046875 -0.765625 3.640625 -0.765625 C 4.171875 -0.765625 4.59375 -0.867188 4.90625 -1.078125 C 5.226562 -1.296875 5.390625 -1.59375 5.390625 -1.96875 C 5.390625 -2.320312 5.234375 -2.601562 4.921875 -2.8125 C 4.617188 -3.03125 4.125 -3.21875 3.4375 -3.375 C 2.507812 -3.601562 1.828125 -3.890625 1.390625 -4.234375 C 0.953125 -4.585938 0.734375 -5.054688 0.734375 -5.640625 C 0.734375 -6.285156 0.976562 -6.796875 1.46875 -7.171875 C 1.957031 -7.554688 2.617188 -7.75 3.453125 -7.75 C 4.304688 -7.75 4.976562 -7.535156 5.46875 -7.109375 C 5.96875 -6.679688 6.222656 -6.097656 6.234375 -5.359375 L 5.28125 -5.359375 C 5.28125 -5.804688 5.113281 -6.160156 4.78125 -6.421875 C 4.457031 -6.691406 4.015625 -6.828125 3.453125 -6.828125 C 2.910156 -6.828125 2.484375 -6.71875 2.171875 -6.5 C 1.867188 -6.289062 1.71875 -6.003906 1.71875 -5.640625 C 1.71875 -5.335938 1.859375 -5.078125 2.140625 -4.859375 C 2.429688 -4.648438 2.945312 -4.453125 3.6875 -4.265625 C 4.65625 -4.023438 5.34375 -3.722656 5.75 -3.359375 C 6.164062 -3.003906 6.375 -2.550781 6.375 -2 C 6.375 -1.34375 6.125 -0.820312 5.625 -0.4375 C 5.132812 -0.0507812 4.472656 0.140625 3.640625 0.140625 Z M 3.640625 0.140625 "/></g></g></g><g fill="#ad7f66" fill-opacity="1"><g transform="translate(186.866535, 298.39038)"><g><path d="M 3.640625 0.140625 C 3.023438 0.140625 2.492188 0.0351562 2.046875 -0.171875 C 1.609375 -0.378906 1.265625 -0.664062 1.015625 -1.03125 C 0.773438 -1.40625 0.65625 -1.835938 0.65625 -2.328125 L 1.609375 -2.328125 C 1.617188 -1.847656 1.8125 -1.46875 2.1875 -1.1875 C 2.5625 -0.90625 3.046875 -0.765625 3.640625 -0.765625 C 4.171875 -0.765625 4.59375 -0.867188 4.90625 -1.078125 C 5.226562 -1.296875 5.390625 -1.59375 5.390625 -1.96875 C 5.390625 -2.320312 5.234375 -2.601562 4.921875 -2.8125 C 4.617188 -3.03125 4.125 -3.21875 3.4375 -3.375 C 2.507812 -3.601562 1.828125 -3.890625 1.390625 -4.234375 C 0.953125 -4.585938 0.734375 -5.054688 0.734375 -5.640625 C 0.734375 -6.285156 0.976562 -6.796875 1.46875 -7.171875 C 1.957031 -7.554688 2.617188 -7.75 3.453125 -7.75 C 4.304688 -7.75 4.976562 -7.535156 5.46875 -7.109375 C 5.96875 -6.679688 6.222656 -6.097656 6.234375 -5.359375 L 5.28125 -5.359375 C 5.28125 -5.804688 5.113281 -6.160156 4.78125 -6.421875 C 4.457031 -6.691406 4.015625 -6.828125 3.453125 -6.828125 C 2.910156 -6.828125 2.484375 -6.71875 2.171875 -6.5 C 1.867188 -6.289062 1.71875 -6.003906 1.71875 -5.640625 C 1.71875 -5.335938 1.859375 -5.078125 2.140625 -4.859375 C 2.429688 -4.648438 2.945312 -4.453125 3.6875 -4.265625 C 4.65625 -4.023438 5.34375 -3.722656 5.75 -3.359375 C 6.164062 -3.003906 6.375 -2.550781 6.375 -2 C 6.375 -1.34375 6.125 -0.820312 5.625 -0.4375 C 5.132812 -0.0507812 4.472656 0.140625 3.640625 0.140625 Z M 3.640625 0.140625 "/></g></g></g><g fill="#ad7f66" fill-opacity="1"><g transform="translate(201.213259, 298.39038)"><g><path d="M 1.109375 0 L 1.109375 -7.609375 L 2.0625 -7.609375 L 2.0625 0 Z M 1.109375 0 "/></g></g></g><g fill="#ad7f66" fill-opacity="1"><g transform="translate(211.707696, 298.39038)"><g><path d="M 4.5625 0.140625 C 3.789062 0.140625 3.109375 -0.0234375 2.515625 -0.359375 C 1.921875 -0.703125 1.457031 -1.171875 1.125 -1.765625 C 0.789062 -2.359375 0.625 -3.035156 0.625 -3.796875 C 0.625 -4.578125 0.789062 -5.257812 1.125 -5.84375 C 1.457031 -6.4375 1.921875 -6.898438 2.515625 -7.234375 C 3.109375 -7.578125 3.789062 -7.75 4.5625 -7.75 C 5.332031 -7.75 6.015625 -7.578125 6.609375 -7.234375 C 7.203125 -6.898438 7.664062 -6.4375 8 -5.84375 C 8.332031 -5.257812 8.5 -4.578125 8.5 -3.796875 C 8.5 -3.035156 8.332031 -2.359375 8 -1.765625 C 7.664062 -1.171875 7.203125 -0.703125 6.609375 -0.359375 C 6.015625 -0.0234375 5.332031 0.140625 4.5625 0.140625 Z M 1.609375 -3.796875 C 1.609375 -3.210938 1.734375 -2.695312 1.984375 -2.25 C 2.234375 -1.800781 2.578125 -1.445312 3.015625 -1.1875 C 3.460938 -0.9375 3.976562 -0.8125 4.5625 -0.8125 C 5.144531 -0.8125 5.65625 -0.9375 6.09375 -1.1875 C 6.539062 -1.445312 6.890625 -1.800781 7.140625 -2.25 C 7.390625 -2.695312 7.515625 -3.210938 7.515625 -3.796875 C 7.515625 -4.390625 7.390625 -4.910156 7.140625 -5.359375 C 6.890625 -5.804688 6.539062 -6.15625 6.09375 -6.40625 C 5.65625 -6.65625 5.144531 -6.78125 4.5625 -6.78125 C 3.976562 -6.78125 3.460938 -6.65625 3.015625 -6.40625 C 2.578125 -6.15625 2.234375 -5.804688 1.984375 -5.359375 C 1.734375 -4.910156 1.609375 -4.390625 1.609375 -3.796875 Z M 1.609375 -3.796875 "/></g></g></g><g fill="#ad7f66" fill-opacity="1"><g transform="translate(228.148758, 298.39038)"><g><path d="M 1.109375 0 L 1.109375 -7.609375 L 2.015625 -7.609375 L 6.21875 -1.65625 L 6.21875 -7.609375 L 7.140625 -7.609375 L 7.140625 0 L 6.25 0 L 2.046875 -5.953125 L 2.046875 0 Z M 1.109375 0 "/></g></g></g><g fill="#ad7f66" fill-opacity="1"><g transform="translate(243.721694, 298.39038)"><g><path d="M 0.1875 0 L 3.3125 -7.609375 L 4.203125 -7.609375 L 7.328125 0 L 6.3125 0 L 5.609375 -1.734375 L 1.90625 -1.734375 L 1.203125 0 Z M 2.265625 -2.609375 L 5.25 -2.609375 L 3.75 -6.265625 Z M 2.265625 -2.609375 "/></g></g></g><g fill="#ad7f66" fill-opacity="1"><g transform="translate(258.556715, 298.39038)"><g><path d="M 1.109375 0 L 1.109375 -7.609375 L 2.0625 -7.609375 L 2.0625 -0.90625 L 5.75 -0.90625 L 5.75 0 Z M 1.109375 0 "/></g></g></g><g fill="#ad7f66" fill-opacity="1"><g transform="translate(271.970197, 298.39038)"><g><path d="M 1.109375 0 L 1.109375 -7.609375 L 2.0625 -7.609375 L 2.0625 0 Z M 1.109375 0 "/></g></g></g></svg>